<?xml version="1.0" ?>
<svg height="24" width="24" viewBox="0 0 24 24" xmlns="http://www.w3.org/2000/svg">
  <g transform="translate(-3.5, -3.5) scale(0.34)">
    <path d="M23.352,47.335c2.598,2.436,6.07,3.938,9.893,3.938c3.863,0,7.369-1.533,9.977-4.014c2.654,1.574,4.25,3.844,4.25,6.234   v15.814h3.4V53.493c0-3.463-2.045-6.67-5.455-8.863c1.496-2.299,2.375-5.041,2.375-7.986c0-8.068-6.527-14.631-14.547-14.631   s-14.543,6.563-14.543,14.631c0,2.986,0.898,5.766,2.432,8.082c-3.32,2.193-5.311,5.365-5.311,8.768v15.814h3.4V53.493   C19.223,51.147,20.775,48.907,23.352,47.335z M33.244,25.413c6.146,0,11.146,5.037,11.146,11.23c0,6.191-5,11.229-11.146,11.229   c-6.145,0-11.143-5.037-11.143-11.229C22.102,30.45,27.1,25.413,33.244,25.413z" 
      fill="currentColor"/>
    <rect height="3.4" width="26" x="51.729" y="26.688" fill="currentColor"/>
    <rect height="3.4" width="26" x="51.729" y="38.87" fill="currentColor"/>
    <rect height="3.4" width="22" x="55.129" y="51.056" fill="currentColor"/>
    <rect height="3.398" width="22" x="55.129" y="63.239" fill="currentColor"/>
  </g>
</svg>
